<?xml version="1.0" standalone="no"?>
<!DOCTYPE svg PUBLIC "-//W3C//DTD SVG 20010904//EN"
 "http://www.w3.org/TR/2001/REC-SVG-20010904/DTD/svg10.dtd">
<svg version="1.0" xmlns="http://www.w3.org/2000/svg"
 width="700.000000pt" height="700.000000pt" viewBox="0 0 700.000000 700.000000"
 preserveAspectRatio="xMidYMid meet">
<metadata>
Created by potrace 1.11, written by Peter Selinger 2001-2013
</metadata>
<g transform="translate(0.000000,700.000000) scale(0.100000,-0.100000)"
fill="#000000" stroke="none">
<path d="M3265 6939 c-690 -41 -1342 -289 -1905 -725 -136 -105 -435 -400
-542 -534 -431 -542 -680 -1152 -748 -1830 -13 -135 -13 -515 0 -650 91 -916
526 -1727 1245 -2324 327 -272 776 -509 1190 -629 160 -47 320 -82 490 -107
178 -27 559 -38 759 -21 851 71 1640 454 2215 1074 514 555 810 1196 903 1957
17 138 17 601 -1 745 -90 755 -387 1402 -903 1965 -676 739 -1677 1139 -2703
1079z m2005 -1951 c80 -99 154 -204 204 -290 47 -82 22 -53 -33 38 -64 105
-177 254 -267 354 -37 41 -48 57 -25 35 24 -22 78 -84 121 -137z m-1562 -274
c249 -51 462 -167 649 -353 120 -118 233 -310 282 -476 27 -93 51 -235 51
-301 l0 -54 545 0 544 0 4 93 3 92 2 -97 2 -98 -550 0 -550 0 0 -37 c0 -124
-60 -364 -122 -488 -136 -272 -365 -482 -645 -595 -154 -62 -270 -83 -443 -83
-170 0 -304 24 -442 79 -617 246 -924 914 -706 1534 153 434 547 747 1007 800
98 11 274 4 369 -16z m1843 -155 c16 -34 29 -63 27 -65 -2 -2 -18 26 -36 61
-17 36 -30 65 -27 65 3 0 19 -27 36 -61z m73 -169 c3 -14 -5 -1 -19 29 -14 29
-25 56 -25 60 1 11 37 -63 44 -89z m26 -65 c0 -5 -5 -3 -10 5 -5 8 -10 20 -10
25 0 6 5 3 10 -5 5 -8 10 -19 10 -25z m47 -157 c-3 -8 -6 -5 -6 6 -1 11 2 17
5 13 3 -3 4 -12 1 -19z m20 -70 c-3 -8 -6 -5 -6 6 -1 11 2 17 5 13 3 -3 4 -12
1 -19z m10 -40 c-3 -8 -6 -5 -6 6 -1 11 2 17 5 13 3 -3 4 -12 1 -19z m10 -50
c-3 -7 -5 -2 -5 12 0 14 2 19 5 13 2 -7 2 -19 0 -25z m10 -50 c-3 -7 -5 -2 -5
12 0 14 2 19 5 13 2 -7 2 -19 0 -25z m10 -55 c-3 -10 -5 -4 -5 12 0 17 2 24 5
18 2 -7 2 -21 0 -30z m10 -70 c-3 -10 -5 -2 -5 17 0 19 2 27 5 18 2 -10 2 -26
0 -35z m10 -80 c-3 -10 -5 -2 -5 17 0 19 2 27 5 18 2 -10 2 -26 0 -35z"/>
</g>
</svg>
