<svg
   xmlns="http://www.w3.org/2000/svg"
   height="100"
   width="100"
   id="svg4"
   version="1.1"
   viewBox="0 0 100 100">
  <symbol id="git-icon" viewBox="0 0 100 100">
  <path
     style="stroke-width:0.173198"
     id="path2"
     d="m 35.780449,75.563374 c 0,0.346396 -0.398355,0.623512 -0.900629,0.623512 -0.571554,0.05196 -0.969909,-0.225157 -0.969909,-0.623512 0,-0.346396 0.398355,-0.623513 0.900629,-0.623513 0.519594,-0.05196 0.969909,0.225158 0.969909,0.623513 z m -5.386456,-0.779391 c -0.121239,0.346396 0.225157,0.744751 0.744751,0.84867 0.450315,0.173198 0.969908,0 1.073827,-0.346396 0.103919,-0.346396 -0.225157,-0.744751 -0.744751,-0.900629 -0.450315,-0.121239 -0.952589,0.05196 -1.073827,0.398355 z m 7.655349,-0.294436 c -0.502274,0.121238 -0.84867,0.450314 -0.79671,0.84867 0.05196,0.346395 0.502274,0.571553 1.021867,0.450314 0.502275,-0.121238 0.84867,-0.450314 0.796711,-0.79671 -0.05196,-0.329076 -0.519595,-0.554234 -1.021868,-0.502274 z M 49.445766,8.1200915 c -24.022555,0 -42.3988575,18.2377445 -42.3988575,42.2603005 0,19.207653 12.0892165,35.644138 29.3570525,41.42895 2.216934,0.398355 2.996325,-0.969909 2.996325,-2.095696 0,-1.073827 -0.05196,-6.997197 -0.05196,-10.634354 0,0 -12.123858,2.59797 -14.669867,-5.161299 0,0 -1.974456,-5.04006 -4.814904,-6.339045 0,0 -3.966232,-2.719207 0.277117,-2.667248 0,0 4.31263,0.346396 6.685442,4.468507 3.793035,6.685441 10.1494,4.762944 12.626131,3.619837 0.398355,-2.771167 1.524141,-4.693664 2.771167,-5.836771 -9.681766,-1.073827 -19.45013,-2.47673 -19.45013,-19.138373 0,-4.762944 1.316304,-7.153076 4.087472,-10.20136 -0.450315,-1.125786 -1.922499,-5.767491 0.450313,-11.76014 3.619837,-1.125787 11.95066,4.676344 11.95066,4.676344 3.463959,-0.969908 7.187714,-1.472182 10.876831,-1.472182 3.689116,0 7.412872,0.502274 10.87683,1.472182 0,0 8.330822,-5.819451 11.95066,-4.676344 2.372811,6.009969 0.900628,10.634354 0.450315,11.76014 2.771167,3.065604 4.468507,5.455736 4.468507,10.20136 0,16.713602 -10.20136,18.047226 -19.883125,19.138373 1.593421,1.368264 2.944365,3.966233 2.944365,8.036385 0,5.836771 -0.05196,13.059126 -0.05196,14.479349 0,1.125786 0.79671,2.49405 2.996324,2.095695 17.319797,-5.750172 29.062617,-22.186657 29.062617,-41.39431 0,-24.022556 -19.484769,-42.2603005 -43.507325,-42.2603005 z M 23.88175,67.856065 c -0.225159,0.173198 -0.173198,0.571553 0.121238,0.900629 0.277117,0.277117 0.675472,0.398356 0.90063,0.173198 0.225157,-0.173198 0.173198,-0.571553 -0.121239,-0.900629 -0.277117,-0.277117 -0.675472,-0.398355 -0.900629,-0.173198 z m -1.870538,-1.402903 c -0.12124,0.225157 0.05196,0.502274 0.398354,0.675472 0.277117,0.173198 0.623513,0.121238 0.744751,-0.121239 0.121239,-0.225157 -0.05196,-0.502274 -0.398354,-0.675472 -0.346397,-0.103919 -0.623514,-0.05196 -0.744751,0.121239 z m 5.611613,6.165847 c -0.277117,0.225157 -0.173197,0.744751 0.225157,1.073827 0.398355,0.398355 0.900629,0.450315 1.125787,0.173198 0.225157,-0.225157 0.121238,-0.744751 -0.225158,-1.073827 -0.381035,-0.398356 -0.900629,-0.450315 -1.125786,-0.173198 z m -1.974457,-2.54601 c -0.277117,0.173198 -0.277117,0.623512 0,1.021868 0.277117,0.398355 0.744751,0.571553 0.969908,0.398355 0.277117,-0.225157 0.277117,-0.675472 0,-1.073827 -0.242477,-0.398356 -0.692791,-0.571553 -0.969908,-0.346396 z" />
  </symbol>
</svg>
